<?xml version="1.0" encoding="utf-8" standalone="no"?>
<!DOCTYPE svg PUBLIC "-//W3C//DTD SVG 1.1//EN"
  "http://www.w3.org/Graphics/SVG/1.1/DTD/svg11.dtd">
<svg xmlns:xlink="http://www.w3.org/1999/xlink" width="1000.192812pt" height="426.869591pt" viewBox="0 0 1000.192812 426.869591" xmlns="http://www.w3.org/2000/svg" version="1.1">
 <metadata>
  <rdf:RDF xmlns:dc="http://purl.org/dc/elements/1.1/" xmlns:cc="http://creativecommons.org/ns#" xmlns:rdf="http://www.w3.org/1999/02/22-rdf-syntax-ns#">
   <cc:Work>
    <dc:type rdf:resource="http://purl.org/dc/dcmitype/StillImage"/>
    <dc:date>2026-07-19T15:26:27.519784</dc:date>
    <dc:format>image/svg+xml</dc:format>
    <dc:creator>
     <cc:Agent>
      <dc:title>Matplotlib v3.10.8, https://matplotlib.org/</dc:title>
     </cc:Agent>
    </dc:creator>
   </cc:Work>
  </rdf:RDF>
 </metadata>
 <defs>
  <style type="text/css">*{stroke-linejoin: round; stroke-linecap: butt}</style>
 </defs>
 <g id="figure_1">
  <g id="patch_1">
   <path d="M 0 426.869591 
L 1000.192812 426.869591 
L 1000.192812 0 
L 0 0 
z
" style="fill: #ffffff"/>
  </g>
  <g id="axes_1">
   <g id="patch_2">
    <path d="M 49.812813 380.705302 
L 514.252813 380.705302 
L 514.252813 69.36 
L 49.812813 69.36 
z
" style="fill: #fbfbfc"/>
   </g>
   <g id="PathCollection_1">
    <defs>
     <path id="m237d859428" d="M 0 2.645751 
C 0.701661 2.645751 1.374679 2.366978 1.870829 1.870829 
C 2.366978 1.374679 2.645751 0.701661 2.645751 0 
C 2.645751 -0.701661 2.366978 -1.374679 1.870829 -1.870829 
C 1.374679 -2.366978 0.701661 -2.645751 0 -2.645751 
C -0.701661 -2.645751 -1.374679 -2.366978 -1.870829 -1.870829 
C -2.366978 -1.374679 -2.645751 -0.701661 -2.645751 0 
C -2.645751 0.701661 -2.366978 1.374679 -1.870829 1.870829 
C -1.374679 2.366978 -0.701661 2.645751 0 2.645751 
z
" style="stroke: #4c78a8; stroke-opacity: 0.68"/>
    </defs>
    <g clip-path="url(#p80c046a129)">
     <use xlink:href="#m237d859428" x="106.460755" y="185.313415" style="fill: #4c78a8; fill-opacity: 0.68; stroke: #4c78a8; stroke-opacity: 0.68"/>
     <use xlink:href="#m237d859428" x="103.903178" y="183.035616" style="fill: #4c78a8; fill-opacity: 0.68; stroke: #4c78a8; stroke-opacity: 0.68"/>
     <use xlink:href="#m237d859428" x="106.171208" y="199.365302" style="fill: #4c78a8; fill-opacity: 0.68; stroke: #4c78a8; stroke-opacity: 0.68"/>
     <use xlink:href="#m237d859428" x="98.845428" y="176.423503" style="fill: #4c78a8; fill-opacity: 0.68; stroke: #4c78a8; stroke-opacity: 0.68"/>
     <use xlink:href="#m237d859428" x="106.055291" y="205.113665" style="fill: #4c78a8; fill-opacity: 0.68; stroke: #4c78a8; stroke-opacity: 0.68"/>
     <use xlink:href="#m237d859428" x="98.927865" y="183.380674" style="fill: #4c78a8; fill-opacity: 0.68; stroke: #4c78a8; stroke-opacity: 0.68"/>
    </g>
   </g>
   <g id="PathCollection_2">
    <defs>
     <path id="m24e4ff0819" d="M 0 2.645751 
C 0.701661 2.645751 1.374679 2.366978 1.870829 1.870829 
C 2.366978 1.374679 2.645751 0.701661 2.645751 0 
C 2.645751 -0.701661 2.366978 -1.374679 1.870829 -1.870829 
C 1.374679 -2.366978 0.701661 -2.645751 0 -2.645751 
C -0.701661 -2.645751 -1.374679 -2.366978 -1.870829 -1.870829 
C -2.366978 -1.374679 -2.645751 -0.701661 -2.645751 0 
C -2.645751 0.701661 -2.366978 1.374679 -1.870829 1.870829 
C -1.374679 2.366978 -0.701661 2.645751 0 2.645751 
z
" style="stroke: #f58518; stroke-opacity: 0.68"/>
    </defs>
    <g clip-path="url(#p80c046a129)">
     <use xlink:href="#m24e4ff0819" x="278.10924" y="195.067118" style="fill: #f58518; fill-opacity: 0.68; stroke: #f58518; stroke-opacity: 0.68"/>
     <use xlink:href="#m24e4ff0819" x="272.787157" y="181.782257" style="fill: #f58518; fill-opacity: 0.68; stroke: #f58518; stroke-opacity: 0.68"/>
     <use xlink:href="#m24e4ff0819" x="279.827254" y="190.663527" style="fill: #f58518; fill-opacity: 0.68; stroke: #f58518; stroke-opacity: 0.68"/>
     <use xlink:href="#m24e4ff0819" x="282.663344" y="185.052639" style="fill: #f58518; fill-opacity: 0.68; stroke: #f58518; stroke-opacity: 0.68"/>
     <use xlink:href="#m24e4ff0819" x="276.869774" y="177.899429" style="fill: #f58518; fill-opacity: 0.68; stroke: #f58518; stroke-opacity: 0.68"/>
     <use xlink:href="#m24e4ff0819" x="282.115322" y="190.281596" style="fill: #f58518; fill-opacity: 0.68; stroke: #f58518; stroke-opacity: 0.68"/>
     <use xlink:href="#m24e4ff0819" x="275.874342" y="188.228102" style="fill: #f58518; fill-opacity: 0.68; stroke: #f58518; stroke-opacity: 0.68"/>
     <use xlink:href="#m24e4ff0819" x="283.878077" y="182.810175" style="fill: #f58518; fill-opacity: 0.68; stroke: #f58518; stroke-opacity: 0.68"/>
     <use xlink:href="#m24e4ff0819" x="282.456255" y="193.164466" style="fill: #f58518; fill-opacity: 0.68; stroke: #f58518; stroke-opacity: 0.68"/>
     <use xlink:href="#m24e4ff0819" x="286.09235" y="188.819436" style="fill: #f58518; fill-opacity: 0.68; stroke: #f58518; stroke-opacity: 0.68"/>
     <use xlink:href="#m24e4ff0819" x="277.240723" y="184.413434" style="fill: #f58518; fill-opacity: 0.68; stroke: #f58518; stroke-opacity: 0.68"/>
     <use xlink:href="#m24e4ff0819" x="273.604809" y="195.878744" style="fill: #f58518; fill-opacity: 0.68; stroke: #f58518; stroke-opacity: 0.68"/>
    </g>
   </g>
   <g id="PathCollection_3">
    <defs>
     <path id="m6b31d72b91" d="M 0 2.645751 
C 0.701661 2.645751 1.374679 2.366978 1.870829 1.870829 
C 2.366978 1.374679 2.645751 0.701661 2.645751 0 
C 2.645751 -0.701661 2.366978 -1.374679 1.870829 -1.870829 
C 1.374679 -2.366978 0.701661 -2.645751 0 -2.645751 
C -0.701661 -2.645751 -1.374679 -2.366978 -1.870829 -1.870829 
C -2.366978 -1.374679 -2.645751 -0.701661 -2.645751 0 
C -2.645751 0.701661 -2.366978 1.374679 -1.870829 1.870829 
C -1.374679 2.366978 -0.701661 2.645751 0 2.645751 
z
" style="stroke: #54a24b; stroke-opacity: 0.68"/>
    </defs>
    <g clip-path="url(#p80c046a129)">
     <use xlink:href="#m6b31d72b91" x="458.363687" y="189.78648" style="fill: #54a24b; fill-opacity: 0.68; stroke: #54a24b; stroke-opacity: 0.68"/>
     <use xlink:href="#m6b31d72b91" x="451.783368" y="183.434502" style="fill: #54a24b; fill-opacity: 0.68; stroke: #54a24b; stroke-opacity: 0.68"/>
     <use xlink:href="#m6b31d72b91" x="443.533353" y="193.660711" style="fill: #54a24b; fill-opacity: 0.68; stroke: #54a24b; stroke-opacity: 0.68"/>
     <use xlink:href="#m6b31d72b91" x="447.682554" y="179.936972" style="fill: #54a24b; fill-opacity: 0.68; stroke: #54a24b; stroke-opacity: 0.68"/>
     <use xlink:href="#m6b31d72b91" x="453.558533" y="184.378793" style="fill: #54a24b; fill-opacity: 0.68; stroke: #54a24b; stroke-opacity: 0.68"/>
     <use xlink:href="#m6b31d72b91" x="448.217117" y="190.496613" style="fill: #54a24b; fill-opacity: 0.68; stroke: #54a24b; stroke-opacity: 0.68"/>
     <use xlink:href="#m6b31d72b91" x="463.130297" y="193.447573" style="fill: #54a24b; fill-opacity: 0.68; stroke: #54a24b; stroke-opacity: 0.68"/>
     <use xlink:href="#m6b31d72b91" x="462.400219" y="181.095819" style="fill: #54a24b; fill-opacity: 0.68; stroke: #54a24b; stroke-opacity: 0.68"/>
     <use xlink:href="#m6b31d72b91" x="466.506013" y="200.281727" style="fill: #54a24b; fill-opacity: 0.68; stroke: #54a24b; stroke-opacity: 0.68"/>
     <use xlink:href="#m6b31d72b91" x="443.687982" y="215.340088" style="fill: #54a24b; fill-opacity: 0.68; stroke: #54a24b; stroke-opacity: 0.68"/>
     <use xlink:href="#m6b31d72b91" x="460.162621" y="186.173721" style="fill: #54a24b; fill-opacity: 0.68; stroke: #54a24b; stroke-opacity: 0.68"/>
     <use xlink:href="#m6b31d72b91" x="471.644234" y="191.853012" style="fill: #54a24b; fill-opacity: 0.68; stroke: #54a24b; stroke-opacity: 0.68"/>
    </g>
   </g>
   <g id="matplotlib.axis_1">
    <g id="xtick_1">
     <g id="line2d_1">
      <path d="M 108.992574 380.705302 
L 108.992574 69.36 
" clip-path="url(#p80c046a129)" style="fill: none; stroke: #dfe3e8; stroke-opacity: 0.65; stroke-width: 0.7; stroke-linecap: square"/>
     </g>
     <g id="line2d_2">
      <defs>
       <path id="mc03f5dbfbb" d="M 0 0 
L 0 3.5 
" style="stroke: #000000; stroke-width: 0.8"/>
      </defs>
      <g>
       <use xlink:href="#mc03f5dbfbb" x="108.992574" y="380.705302" style="stroke: #000000; stroke-width: 0.8"/>
      </g>
     </g>
     <g id="text_1">
      <!-- A100-40GB -->
      <g transform="translate(87.590916 405.35222) rotate(-15) scale(0.08 -0.08)">
       <defs>
        <path id="DejaVuSans-41" d="M 2188 4044 
L 1331 1722 
L 3047 1722 
L 2188 4044 
z
M 1831 4666 
L 2547 4666 
L 4325 0 
L 3669 0 
L 3244 1197 
L 1141 1197 
L 716 0 
L 50 0 
L 1831 4666 
z
" transform="scale(0.015625)"/>
        <path id="DejaVuSans-31" d="M 794 531 
L 1825 531 
L 1825 4091 
L 703 3866 
L 703 4441 
L 1819 4666 
L 2450 4666 
L 2450 531 
L 3481 531 
L 3481 0 
L 794 0 
L 794 531 
z
" transform="scale(0.015625)"/>
        <path id="DejaVuSans-30" d="M 2034 4250 
Q 1547 4250 1301 3770 
Q 1056 3291 1056 2328 
Q 1056 1369 1301 889 
Q 1547 409 2034 409 
Q 2525 409 2770 889 
Q 3016 1369 3016 2328 
Q 3016 3291 2770 3770 
Q 2525 4250 2034 4250 
z
M 2034 4750 
Q 2819 4750 3233 4129 
Q 3647 3509 3647 2328 
Q 3647 1150 3233 529 
Q 2819 -91 2034 -91 
Q 1250 -91 836 529 
Q 422 1150 422 2328 
Q 422 3509 836 4129 
Q 1250 4750 2034 4750 
z
" transform="scale(0.015625)"/>
        <path id="DejaVuSans-2d" d="M 313 2009 
L 1997 2009 
L 1997 1497 
L 313 1497 
L 313 2009 
z
" transform="scale(0.015625)"/>
        <path id="DejaVuSans-34" d="M 2419 4116 
L 825 1625 
L 2419 1625 
L 2419 4116 
z
M 2253 4666 
L 3047 4666 
L 3047 1625 
L 3713 1625 
L 3713 1100 
L 3047 1100 
L 3047 0 
L 2419 0 
L 2419 1100 
L 313 1100 
L 313 1709 
L 2253 4666 
z
" transform="scale(0.015625)"/>
        <path id="DejaVuSans-47" d="M 3809 666 
L 3809 1919 
L 2778 1919 
L 2778 2438 
L 4434 2438 
L 4434 434 
Q 4069 175 3628 42 
Q 3188 -91 2688 -91 
Q 1594 -91 976 548 
Q 359 1188 359 2328 
Q 359 3472 976 4111 
Q 1594 4750 2688 4750 
Q 3144 4750 3555 4637 
Q 3966 4525 4313 4306 
L 4313 3634 
Q 3963 3931 3569 4081 
Q 3175 4231 2741 4231 
Q 1884 4231 1454 3753 
Q 1025 3275 1025 2328 
Q 1025 1384 1454 906 
Q 1884 428 2741 428 
Q 3075 428 3337 486 
Q 3600 544 3809 666 
z
" transform="scale(0.015625)"/>
        <path id="DejaVuSans-42" d="M 1259 2228 
L 1259 519 
L 2272 519 
Q 2781 519 3026 730 
Q 3272 941 3272 1375 
Q 3272 1813 3026 2020 
Q 2781 2228 2272 2228 
L 1259 2228 
z
M 1259 4147 
L 1259 2741 
L 2194 2741 
Q 2656 2741 2882 2914 
Q 3109 3088 3109 3444 
Q 3109 3797 2882 3972 
Q 2656 4147 2194 4147 
L 1259 4147 
z
M 628 4666 
L 2241 4666 
Q 2963 4666 3353 4366 
Q 3744 4066 3744 3513 
Q 3744 3084 3544 2831 
Q 3344 2578 2956 2516 
Q 3422 2416 3680 2098 
Q 3938 1781 3938 1306 
Q 3938 681 3513 340 
Q 3088 0 2303 0 
L 628 0 
L 628 4666 
z
" transform="scale(0.015625)"/>
       </defs>
       <use xlink:href="#DejaVuSans-41"/>
       <use xlink:href="#DejaVuSans-31" transform="translate(68.408203 0)"/>
       <use xlink:href="#DejaVuSans-30" transform="translate(132.03125 0)"/>
       <use xlink:href="#DejaVuSans-30" transform="translate(195.654297 0)"/>
       <use xlink:href="#DejaVuSans-2d" transform="translate(259.277344 0)"/>
       <use xlink:href="#DejaVuSans-34" transform="translate(295.361328 0)"/>
       <use xlink:href="#DejaVuSans-30" transform="translate(358.984375 0)"/>
       <use xlink:href="#DejaVuSans-47" transform="translate(422.607422 0)"/>
       <use xlink:href="#DejaVuSans-42" transform="translate(500.097656 0)"/>
      </g>
     </g>
    </g>
    <g id="xtick_2">
     <g id="line2d_3">
      <path d="M 282.032813 380.705302 
L 282.032813 69.36 
" clip-path="url(#p80c046a129)" style="fill: none; stroke: #dfe3e8; stroke-opacity: 0.65; stroke-width: 0.7; stroke-linecap: square"/>
     </g>
     <g id="line2d_4">
      <g>
       <use xlink:href="#mc03f5dbfbb" x="282.032813" y="380.705302" style="stroke: #000000; stroke-width: 0.8"/>
      </g>
     </g>
     <g id="text_2">
      <!-- H100 -->
      <g transform="translate(272.323686 399.086211) rotate(-15) scale(0.08 -0.08)">
       <defs>
        <path id="DejaVuSans-48" d="M 628 4666 
L 1259 4666 
L 1259 2753 
L 3553 2753 
L 3553 4666 
L 4184 4666 
L 4184 0 
L 3553 0 
L 3553 2222 
L 1259 2222 
L 1259 0 
L 628 0 
L 628 4666 
z
" transform="scale(0.015625)"/>
       </defs>
       <use xlink:href="#DejaVuSans-48"/>
       <use xlink:href="#DejaVuSans-31" transform="translate(75.195312 0)"/>
       <use xlink:href="#DejaVuSans-30" transform="translate(138.818359 0)"/>
       <use xlink:href="#DejaVuSans-30" transform="translate(202.441406 0)"/>
      </g>
     </g>
    </g>
    <g id="xtick_3">
     <g id="line2d_5">
      <path d="M 455.073051 380.705302 
L 455.073051 69.36 
" clip-path="url(#p80c046a129)" style="fill: none; stroke: #dfe3e8; stroke-opacity: 0.65; stroke-width: 0.7; stroke-linecap: square"/>
     </g>
     <g id="line2d_6">
      <g>
       <use xlink:href="#mc03f5dbfbb" x="455.073051" y="380.705302" style="stroke: #000000; stroke-width: 0.8"/>
      </g>
     </g>
     <g id="text_3">
      <!-- B200 -->
      <g transform="translate(445.618688 398.949684) rotate(-15) scale(0.08 -0.08)">
       <defs>
        <path id="DejaVuSans-32" d="M 1228 531 
L 3431 531 
L 3431 0 
L 469 0 
L 469 531 
Q 828 903 1448 1529 
Q 2069 2156 2228 2338 
Q 2531 2678 2651 2914 
Q 2772 3150 2772 3378 
Q 2772 3750 2511 3984 
Q 2250 4219 1831 4219 
Q 1534 4219 1204 4116 
Q 875 4013 500 3803 
L 500 4441 
Q 881 4594 1212 4672 
Q 1544 4750 1819 4750 
Q 2544 4750 2975 4387 
Q 3406 4025 3406 3419 
Q 3406 3131 3298 2873 
Q 3191 2616 2906 2266 
Q 2828 2175 2409 1742 
Q 1991 1309 1228 531 
z
" transform="scale(0.015625)"/>
       </defs>
       <use xlink:href="#DejaVuSans-42"/>
       <use xlink:href="#DejaVuSans-32" transform="translate(68.603516 0)"/>
       <use xlink:href="#DejaVuSans-30" transform="translate(132.226562 0)"/>
       <use xlink:href="#DejaVuSans-30" transform="translate(195.849609 0)"/>
      </g>
     </g>
    </g>
    <g id="text_4">
     <!-- GPU -->
     <g transform="translate(272.539219 417.797873) scale(0.09 -0.09)">
      <defs>
       <path id="DejaVuSans-50" d="M 1259 4147 
L 1259 2394 
L 2053 2394 
Q 2494 2394 2734 2622 
Q 2975 2850 2975 3272 
Q 2975 3691 2734 3919 
Q 2494 4147 2053 4147 
L 1259 4147 
z
M 628 4666 
L 2053 4666 
Q 2838 4666 3239 4311 
Q 3641 3956 3641 3272 
Q 3641 2581 3239 2228 
Q 2838 1875 2053 1875 
L 1259 1875 
L 1259 0 
L 628 0 
L 628 4666 
z
" transform="scale(0.015625)"/>
       <path id="DejaVuSans-55" d="M 556 4666 
L 1191 4666 
L 1191 1831 
Q 1191 1081 1462 751 
Q 1734 422 2344 422 
Q 2950 422 3222 751 
Q 3494 1081 3494 1831 
L 3494 4666 
L 4128 4666 
L 4128 1753 
Q 4128 841 3676 375 
Q 3225 -91 2344 -91 
Q 1459 -91 1007 375 
Q 556 841 556 1753 
L 556 4666 
z
" transform="scale(0.015625)"/>
      </defs>
      <use xlink:href="#DejaVuSans-47"/>
      <use xlink:href="#DejaVuSans-50" transform="translate(77.490234 0)"/>
      <use xlink:href="#DejaVuSans-55" transform="translate(137.792969 0)"/>
     </g>
    </g>
   </g>
   <g id="matplotlib.axis_2">
    <g id="ytick_1">
     <g id="line2d_7">
      <path d="M 49.812813 380.705302 
L 514.252813 380.705302 
" clip-path="url(#p80c046a129)" style="fill: none; stroke: #dfe3e8; stroke-opacity: 0.65; stroke-width: 0.7; stroke-linecap: square"/>
     </g>
     <g id="line2d_8">
      <defs>
       <path id="m3317632c56" d="M 0 0 
L -3.5 0 
" style="stroke: #000000; stroke-width: 0.8"/>
      </defs>
      <g>
       <use xlink:href="#m3317632c56" x="49.812813" y="380.705302" style="stroke: #000000; stroke-width: 0.8"/>
      </g>
     </g>
     <g id="text_5">
      <!-- 0.125 -->
      <g transform="translate(19.910313 383.744677) scale(0.08 -0.08)">
       <defs>
        <path id="DejaVuSans-2e" d="M 684 794 
L 1344 794 
L 1344 0 
L 684 0 
L 684 794 
z
" transform="scale(0.015625)"/>
        <path id="DejaVuSans-35" d="M 691 4666 
L 3169 4666 
L 3169 4134 
L 1269 4134 
L 1269 2991 
Q 1406 3038 1543 3061 
Q 1681 3084 1819 3084 
Q 2600 3084 3056 2656 
Q 3513 2228 3513 1497 
Q 3513 744 3044 326 
Q 2575 -91 1722 -91 
Q 1428 -91 1123 -41 
Q 819 9 494 109 
L 494 744 
Q 775 591 1075 516 
Q 1375 441 1709 441 
Q 2250 441 2565 725 
Q 2881 1009 2881 1497 
Q 2881 1984 2565 2268 
Q 2250 2553 1709 2553 
Q 1456 2553 1204 2497 
Q 953 2441 691 2322 
L 691 4666 
z
" transform="scale(0.015625)"/>
       </defs>
       <use xlink:href="#DejaVuSans-30"/>
       <use xlink:href="#DejaVuSans-2e" transform="translate(63.623047 0)"/>
       <use xlink:href="#DejaVuSans-31" transform="translate(95.410156 0)"/>
       <use xlink:href="#DejaVuSans-32" transform="translate(159.033203 0)"/>
       <use xlink:href="#DejaVuSans-35" transform="translate(222.65625 0)"/>
      </g>
     </g>
    </g>
    <g id="ytick_2">
     <g id="line2d_9">
      <path d="M 49.812813 318.436242 
L 514.252813 318.436242 
" clip-path="url(#p80c046a129)" style="fill: none; stroke: #dfe3e8; stroke-opacity: 0.65; stroke-width: 0.7; stroke-linecap: square"/>
     </g>
     <g id="line2d_10">
      <g>
       <use xlink:href="#m3317632c56" x="49.812813" y="318.436242" style="stroke: #000000; stroke-width: 0.8"/>
      </g>
     </g>
     <g id="text_6">
      <!-- 0.25 -->
      <g transform="translate(25.000313 321.475617) scale(0.08 -0.08)">
       <use xlink:href="#DejaVuSans-30"/>
       <use xlink:href="#DejaVuSans-2e" transform="translate(63.623047 0)"/>
       <use xlink:href="#DejaVuSans-32" transform="translate(95.410156 0)"/>
       <use xlink:href="#DejaVuSans-35" transform="translate(159.033203 0)"/>
      </g>
     </g>
    </g>
    <g id="ytick_3">
     <g id="line2d_11">
      <path d="M 49.812813 256.167181 
L 514.252813 256.167181 
" clip-path="url(#p80c046a129)" style="fill: none; stroke: #dfe3e8; stroke-opacity: 0.65; stroke-width: 0.7; stroke-linecap: square"/>
     </g>
     <g id="line2d_12">
      <g>
       <use xlink:href="#m3317632c56" x="49.812813" y="256.167181" style="stroke: #000000; stroke-width: 0.8"/>
      </g>
     </g>
     <g id="text_7">
      <!-- 0.5 -->
      <g transform="translate(30.090313 259.206556) scale(0.08 -0.08)">
       <use xlink:href="#DejaVuSans-30"/>
       <use xlink:href="#DejaVuSans-2e" transform="translate(63.623047 0)"/>
       <use xlink:href="#DejaVuSans-35" transform="translate(95.410156 0)"/>
      </g>
     </g>
    </g>
    <g id="ytick_4">
     <g id="line2d_13">
      <path d="M 49.812813 193.898121 
L 514.252813 193.898121 
" clip-path="url(#p80c046a129)" style="fill: none; stroke: #dfe3e8; stroke-opacity: 0.65; stroke-width: 0.7; stroke-linecap: square"/>
     </g>
     <g id="line2d_14">
      <g>
       <use xlink:href="#m3317632c56" x="49.812813" y="193.898121" style="stroke: #000000; stroke-width: 0.8"/>
      </g>
     </g>
     <g id="text_8">
      <!-- 1 -->
      <g transform="translate(37.722813 196.937496) scale(0.08 -0.08)">
       <use xlink:href="#DejaVuSans-31"/>
      </g>
     </g>
    </g>
    <g id="ytick_5">
     <g id="line2d_15">
      <path d="M 49.812813 131.62906 
L 514.252813 131.62906 
" clip-path="url(#p80c046a129)" style="fill: none; stroke: #dfe3e8; stroke-opacity: 0.65; stroke-width: 0.7; stroke-linecap: square"/>
     </g>
     <g id="line2d_16">
      <g>
       <use xlink:href="#m3317632c56" x="49.812813" y="131.62906" style="stroke: #000000; stroke-width: 0.8"/>
      </g>
     </g>
     <g id="text_9">
      <!-- 2 -->
      <g transform="translate(37.722813 134.668435) scale(0.08 -0.08)">
       <use xlink:href="#DejaVuSans-32"/>
      </g>
     </g>
    </g>
    <g id="ytick_6">
     <g id="line2d_17">
      <path d="M 49.812813 69.36 
L 514.252813 69.36 
" clip-path="url(#p80c046a129)" style="fill: none; stroke: #dfe3e8; stroke-opacity: 0.65; stroke-width: 0.7; stroke-linecap: square"/>
     </g>
     <g id="line2d_18">
      <g>
       <use xlink:href="#m3317632c56" x="49.812813" y="69.36" style="stroke: #000000; stroke-width: 0.8"/>
      </g>
     </g>
     <g id="text_10">
      <!-- 4 -->
      <g transform="translate(37.722813 72.399375) scale(0.08 -0.08)">
       <use xlink:href="#DejaVuSans-34"/>
      </g>
     </g>
    </g>
    <g id="text_11">
     <!-- Numerator-block latency / denominator-block latency -->
     <g transform="translate(14.038594 345.071557) rotate(-90) scale(0.09 -0.09)">
      <defs>
       <path id="DejaVuSans-4e" d="M 628 4666 
L 1478 4666 
L 3547 763 
L 3547 4666 
L 4159 4666 
L 4159 0 
L 3309 0 
L 1241 3903 
L 1241 0 
L 628 0 
L 628 4666 
z
" transform="scale(0.015625)"/>
       <path id="DejaVuSans-75" d="M 544 1381 
L 544 3500 
L 1119 3500 
L 1119 1403 
Q 1119 906 1312 657 
Q 1506 409 1894 409 
Q 2359 409 2629 706 
Q 2900 1003 2900 1516 
L 2900 3500 
L 3475 3500 
L 3475 0 
L 2900 0 
L 2900 538 
Q 2691 219 2414 64 
Q 2138 -91 1772 -91 
Q 1169 -91 856 284 
Q 544 659 544 1381 
z
M 1991 3584 
L 1991 3584 
z
" transform="scale(0.015625)"/>
       <path id="DejaVuSans-6d" d="M 3328 2828 
Q 3544 3216 3844 3400 
Q 4144 3584 4550 3584 
Q 5097 3584 5394 3201 
Q 5691 2819 5691 2113 
L 5691 0 
L 5113 0 
L 5113 2094 
Q 5113 2597 4934 2840 
Q 4756 3084 4391 3084 
Q 3944 3084 3684 2787 
Q 3425 2491 3425 1978 
L 3425 0 
L 2847 0 
L 2847 2094 
Q 2847 2600 2669 2842 
Q 2491 3084 2119 3084 
Q 1678 3084 1418 2786 
Q 1159 2488 1159 1978 
L 1159 0 
L 581 0 
L 581 3500 
L 1159 3500 
L 1159 2956 
Q 1356 3278 1631 3431 
Q 1906 3584 2284 3584 
Q 2666 3584 2933 3390 
Q 3200 3197 3328 2828 
z
" transform="scale(0.015625)"/>
       <path id="DejaVuSans-65" d="M 3597 1894 
L 3597 1613 
L 953 1613 
Q 991 1019 1311 708 
Q 1631 397 2203 397 
Q 2534 397 2845 478 
Q 3156 559 3463 722 
L 3463 178 
Q 3153 47 2828 -22 
Q 2503 -91 2169 -91 
Q 1331 -91 842 396 
Q 353 884 353 1716 
Q 353 2575 817 3079 
Q 1281 3584 2069 3584 
Q 2775 3584 3186 3129 
Q 3597 2675 3597 1894 
z
M 3022 2063 
Q 3016 2534 2758 2815 
Q 2500 3097 2075 3097 
Q 1594 3097 1305 2825 
Q 1016 2553 972 2059 
L 3022 2063 
z
" transform="scale(0.015625)"/>
       <path id="DejaVuSans-72" d="M 2631 2963 
Q 2534 3019 2420 3045 
Q 2306 3072 2169 3072 
Q 1681 3072 1420 2755 
Q 1159 2438 1159 1844 
L 1159 0 
L 581 0 
L 581 3500 
L 1159 3500 
L 1159 2956 
Q 1341 3275 1631 3429 
Q 1922 3584 2338 3584 
Q 2397 3584 2469 3576 
Q 2541 3569 2628 3553 
L 2631 2963 
z
" transform="scale(0.015625)"/>
       <path id="DejaVuSans-61" d="M 2194 1759 
Q 1497 1759 1228 1600 
Q 959 1441 959 1056 
Q 959 750 1161 570 
Q 1363 391 1709 391 
Q 2188 391 2477 730 
Q 2766 1069 2766 1631 
L 2766 1759 
L 2194 1759 
z
M 3341 1997 
L 3341 0 
L 2766 0 
L 2766 531 
Q 2569 213 2275 61 
Q 1981 -91 1556 -91 
Q 1019 -91 701 211 
Q 384 513 384 1019 
Q 384 1609 779 1909 
Q 1175 2209 1959 2209 
L 2766 2209 
L 2766 2266 
Q 2766 2663 2505 2880 
Q 2244 3097 1772 3097 
Q 1472 3097 1187 3025 
Q 903 2953 641 2809 
L 641 3341 
Q 956 3463 1253 3523 
Q 1550 3584 1831 3584 
Q 2591 3584 2966 3190 
Q 3341 2797 3341 1997 
z
" transform="scale(0.015625)"/>
       <path id="DejaVuSans-74" d="M 1172 4494 
L 1172 3500 
L 2356 3500 
L 2356 3053 
L 1172 3053 
L 1172 1153 
Q 1172 725 1289 603 
Q 1406 481 1766 481 
L 2356 481 
L 2356 0 
L 1766 0 
Q 1100 0 847 248 
Q 594 497 594 1153 
L 594 3053 
L 172 3053 
L 172 3500 
L 594 3500 
L 594 4494 
L 1172 4494 
z
" transform="scale(0.015625)"/>
       <path id="DejaVuSans-6f" d="M 1959 3097 
Q 1497 3097 1228 2736 
Q 959 2375 959 1747 
Q 959 1119 1226 758 
Q 1494 397 1959 397 
Q 2419 397 2687 759 
Q 2956 1122 2956 1747 
Q 2956 2369 2687 2733 
Q 2419 3097 1959 3097 
z
M 1959 3584 
Q 2709 3584 3137 3096 
Q 3566 2609 3566 1747 
Q 3566 888 3137 398 
Q 2709 -91 1959 -91 
Q 1206 -91 779 398 
Q 353 888 353 1747 
Q 353 2609 779 3096 
Q 1206 3584 1959 3584 
z
" transform="scale(0.015625)"/>
       <path id="DejaVuSans-62" d="M 3116 1747 
Q 3116 2381 2855 2742 
Q 2594 3103 2138 3103 
Q 1681 3103 1420 2742 
Q 1159 2381 1159 1747 
Q 1159 1113 1420 752 
Q 1681 391 2138 391 
Q 2594 391 2855 752 
Q 3116 1113 3116 1747 
z
M 1159 2969 
Q 1341 3281 1617 3432 
Q 1894 3584 2278 3584 
Q 2916 3584 3314 3078 
Q 3713 2572 3713 1747 
Q 3713 922 3314 415 
Q 2916 -91 2278 -91 
Q 1894 -91 1617 61 
Q 1341 213 1159 525 
L 1159 0 
L 581 0 
L 581 4863 
L 1159 4863 
L 1159 2969 
z
" transform="scale(0.015625)"/>
       <path id="DejaVuSans-6c" d="M 603 4863 
L 1178 4863 
L 1178 0 
L 603 0 
L 603 4863 
z
" transform="scale(0.015625)"/>
       <path id="DejaVuSans-63" d="M 3122 3366 
L 3122 2828 
Q 2878 2963 2633 3030 
Q 2388 3097 2138 3097 
Q 1578 3097 1268 2742 
Q 959 2388 959 1747 
Q 959 1106 1268 751 
Q 1578 397 2138 397 
Q 2388 397 2633 464 
Q 2878 531 3122 666 
L 3122 134 
Q 2881 22 2623 -34 
Q 2366 -91 2075 -91 
Q 1284 -91 818 406 
Q 353 903 353 1747 
Q 353 2603 823 3093 
Q 1294 3584 2113 3584 
Q 2378 3584 2631 3529 
Q 2884 3475 3122 3366 
z
" transform="scale(0.015625)"/>
       <path id="DejaVuSans-6b" d="M 581 4863 
L 1159 4863 
L 1159 1991 
L 2875 3500 
L 3609 3500 
L 1753 1863 
L 3688 0 
L 2938 0 
L 1159 1709 
L 1159 0 
L 581 0 
L 581 4863 
z
" transform="scale(0.015625)"/>
       <path id="DejaVuSans-20" transform="scale(0.015625)"/>
       <path id="DejaVuSans-6e" d="M 3513 2113 
L 3513 0 
L 2938 0 
L 2938 2094 
Q 2938 2591 2744 2837 
Q 2550 3084 2163 3084 
Q 1697 3084 1428 2787 
Q 1159 2491 1159 1978 
L 1159 0 
L 581 0 
L 581 3500 
L 1159 3500 
L 1159 2956 
Q 1366 3272 1645 3428 
Q 1925 3584 2291 3584 
Q 2894 3584 3203 3211 
Q 3513 2838 3513 2113 
z
" transform="scale(0.015625)"/>
       <path id="DejaVuSans-79" d="M 2059 -325 
Q 1816 -950 1584 -1140 
Q 1353 -1331 966 -1331 
L 506 -1331 
L 506 -850 
L 844 -850 
Q 1081 -850 1212 -737 
Q 1344 -625 1503 -206 
L 1606 56 
L 191 3500 
L 800 3500 
L 1894 763 
L 2988 3500 
L 3597 3500 
L 2059 -325 
z
" transform="scale(0.015625)"/>
       <path id="DejaVuSans-2f" d="M 1625 4666 
L 2156 4666 
L 531 -594 
L 0 -594 
L 1625 4666 
z
" transform="scale(0.015625)"/>
       <path id="DejaVuSans-64" d="M 2906 2969 
L 2906 4863 
L 3481 4863 
L 3481 0 
L 2906 0 
L 2906 525 
Q 2725 213 2448 61 
Q 2172 -91 1784 -91 
Q 1150 -91 751 415 
Q 353 922 353 1747 
Q 353 2572 751 3078 
Q 1150 3584 1784 3584 
Q 2172 3584 2448 3432 
Q 2725 3281 2906 2969 
z
M 947 1747 
Q 947 1113 1208 752 
Q 1469 391 1925 391 
Q 2381 391 2643 752 
Q 2906 1113 2906 1747 
Q 2906 2381 2643 2742 
Q 2381 3103 1925 3103 
Q 1469 3103 1208 2742 
Q 947 2381 947 1747 
z
" transform="scale(0.015625)"/>
       <path id="DejaVuSans-69" d="M 603 3500 
L 1178 3500 
L 1178 0 
L 603 0 
L 603 3500 
z
M 603 4863 
L 1178 4863 
L 1178 4134 
L 603 4134 
L 603 4863 
z
" transform="scale(0.015625)"/>
      </defs>
      <use xlink:href="#DejaVuSans-4e"/>
      <use xlink:href="#DejaVuSans-75" transform="translate(74.804688 0)"/>
      <use xlink:href="#DejaVuSans-6d" transform="translate(138.183594 0)"/>
      <use xlink:href="#DejaVuSans-65" transform="translate(235.595703 0)"/>
      <use xlink:href="#DejaVuSans-72" transform="translate(297.119141 0)"/>
      <use xlink:href="#DejaVuSans-61" transform="translate(338.232422 0)"/>
      <use xlink:href="#DejaVuSans-74" transform="translate(399.511719 0)"/>
      <use xlink:href="#DejaVuSans-6f" transform="translate(438.720703 0)"/>
      <use xlink:href="#DejaVuSans-72" transform="translate(499.902344 0)"/>
      <use xlink:href="#DejaVuSans-2d" transform="translate(534.640625 0)"/>
      <use xlink:href="#DejaVuSans-62" transform="translate(570.724609 0)"/>
      <use xlink:href="#DejaVuSans-6c" transform="translate(634.201172 0)"/>
      <use xlink:href="#DejaVuSans-6f" transform="translate(661.984375 0)"/>
      <use xlink:href="#DejaVuSans-63" transform="translate(723.166016 0)"/>
      <use xlink:href="#DejaVuSans-6b" transform="translate(778.146484 0)"/>
      <use xlink:href="#DejaVuSans-20" transform="translate(836.056641 0)"/>
      <use xlink:href="#DejaVuSans-6c" transform="translate(867.84375 0)"/>
      <use xlink:href="#DejaVuSans-61" transform="translate(895.626953 0)"/>
      <use xlink:href="#DejaVuSans-74" transform="translate(956.90625 0)"/>
      <use xlink:href="#DejaVuSans-65" transform="translate(996.115234 0)"/>
      <use xlink:href="#DejaVuSans-6e" transform="translate(1057.638672 0)"/>
      <use xlink:href="#DejaVuSans-63" transform="translate(1121.017578 0)"/>
      <use xlink:href="#DejaVuSans-79" transform="translate(1175.998047 0)"/>
      <use xlink:href="#DejaVuSans-20" transform="translate(1235.177734 0)"/>
      <use xlink:href="#DejaVuSans-2f" transform="translate(1266.964844 0)"/>
      <use xlink:href="#DejaVuSans-20" transform="translate(1300.65625 0)"/>
      <use xlink:href="#DejaVuSans-64" transform="translate(1332.443359 0)"/>
      <use xlink:href="#DejaVuSans-65" transform="translate(1395.919922 0)"/>
      <use xlink:href="#DejaVuSans-6e" transform="translate(1457.443359 0)"/>
      <use xlink:href="#DejaVuSans-6f" transform="translate(1520.822266 0)"/>
      <use xlink:href="#DejaVuSans-6d" transform="translate(1582.003906 0)"/>
      <use xlink:href="#DejaVuSans-69" transform="translate(1679.416016 0)"/>
      <use xlink:href="#DejaVuSans-6e" transform="translate(1707.199219 0)"/>
      <use xlink:href="#DejaVuSans-61" transform="translate(1770.578125 0)"/>
      <use xlink:href="#DejaVuSans-74" transform="translate(1831.857422 0)"/>
      <use xlink:href="#DejaVuSans-6f" transform="translate(1871.066406 0)"/>
      <use xlink:href="#DejaVuSans-72" transform="translate(1932.248047 0)"/>
      <use xlink:href="#DejaVuSans-2d" transform="translate(1966.986328 0)"/>
      <use xlink:href="#DejaVuSans-62" transform="translate(2003.070312 0)"/>
      <use xlink:href="#DejaVuSans-6c" transform="translate(2066.546875 0)"/>
      <use xlink:href="#DejaVuSans-6f" transform="translate(2094.330078 0)"/>
      <use xlink:href="#DejaVuSans-63" transform="translate(2155.511719 0)"/>
      <use xlink:href="#DejaVuSans-6b" transform="translate(2210.492188 0)"/>
      <use xlink:href="#DejaVuSans-20" transform="translate(2268.402344 0)"/>
      <use xlink:href="#DejaVuSans-6c" transform="translate(2300.189453 0)"/>
      <use xlink:href="#DejaVuSans-61" transform="translate(2327.972656 0)"/>
      <use xlink:href="#DejaVuSans-74" transform="translate(2389.251953 0)"/>
      <use xlink:href="#DejaVuSans-65" transform="translate(2428.460938 0)"/>
      <use xlink:href="#DejaVuSans-6e" transform="translate(2489.984375 0)"/>
      <use xlink:href="#DejaVuSans-63" transform="translate(2553.363281 0)"/>
      <use xlink:href="#DejaVuSans-79" transform="translate(2608.34375 0)"/>
     </g>
    </g>
   </g>
   <g id="LineCollection_1">
    <path d="M 70.923722 184.341847 
L 147.061427 184.341847 
" clip-path="url(#p80c046a129)" style="fill: none; stroke: #111827; stroke-width: 2"/>
   </g>
   <g id="LineCollection_2">
    <path d="M 243.96396 188.523282 
L 320.101665 188.523282 
" clip-path="url(#p80c046a129)" style="fill: none; stroke: #111827; stroke-width: 2"/>
   </g>
   <g id="LineCollection_3">
    <path d="M 417.004198 190.140845 
L 493.141903 190.140845 
" clip-path="url(#p80c046a129)" style="fill: none; stroke: #111827; stroke-width: 2"/>
   </g>
   <g id="line2d_19">
    <path d="M 49.812813 193.898121 
L 514.252813 193.898121 
" clip-path="url(#p80c046a129)" style="fill: none; stroke-dasharray: 3.7,1.6; stroke-dashoffset: 0; stroke: #111827"/>
   </g>
   <g id="patch_3">
    <path d="M 49.812813 380.705302 
L 49.812813 69.36 
" style="fill: none; stroke: #b8bdc7; stroke-width: 0.8; stroke-linejoin: miter; stroke-linecap: square"/>
   </g>
   <g id="patch_4">
    <path d="M 514.252813 380.705302 
L 514.252813 69.36 
" style="fill: none; stroke: #b8bdc7; stroke-width: 0.8; stroke-linejoin: miter; stroke-linecap: square"/>
   </g>
   <g id="patch_5">
    <path d="M 49.812813 380.705302 
L 514.252813 380.705302 
" style="fill: none; stroke: #b8bdc7; stroke-width: 0.8; stroke-linejoin: miter; stroke-linecap: square"/>
   </g>
   <g id="patch_6">
    <path d="M 49.812813 69.36 
L 514.252813 69.36 
" style="fill: none; stroke: #b8bdc7; stroke-width: 0.8; stroke-linejoin: miter; stroke-linecap: square"/>
   </g>
   <g id="text_12">
    <g id="patch_7">
     <path d="M 59.101613 94.687656 
L 164.479112 94.687656 
Q 166.879112 94.687656 166.879112 92.287656 
L 166.879112 75.586906 
Q 166.879112 73.186906 164.479112 73.186906 
L 59.101613 73.186906 
Q 56.701613 73.186906 56.701613 75.586906 
L 56.701613 92.287656 
Q 56.701613 94.687656 59.101613 94.687656 
z
" style="fill: #ffffff; stroke: #d1d5db; stroke-linejoin: miter"/>
    </g>
    <!-- ratio &lt; 1: block 256 faster -->
    <g transform="translate(59.101613 81.665656) scale(0.08 -0.08)">
     <defs>
      <path id="DejaVuSans-3c" d="M 4684 3150 
L 1459 2003 
L 4684 863 
L 4684 294 
L 678 1747 
L 678 2266 
L 4684 3719 
L 4684 3150 
z
" transform="scale(0.015625)"/>
      <path id="DejaVuSans-3a" d="M 750 794 
L 1409 794 
L 1409 0 
L 750 0 
L 750 794 
z
M 750 3309 
L 1409 3309 
L 1409 2516 
L 750 2516 
L 750 3309 
z
" transform="scale(0.015625)"/>
      <path id="DejaVuSans-36" d="M 2113 2584 
Q 1688 2584 1439 2293 
Q 1191 2003 1191 1497 
Q 1191 994 1439 701 
Q 1688 409 2113 409 
Q 2538 409 2786 701 
Q 3034 994 3034 1497 
Q 3034 2003 2786 2293 
Q 2538 2584 2113 2584 
z
M 3366 4563 
L 3366 3988 
Q 3128 4100 2886 4159 
Q 2644 4219 2406 4219 
Q 1781 4219 1451 3797 
Q 1122 3375 1075 2522 
Q 1259 2794 1537 2939 
Q 1816 3084 2150 3084 
Q 2853 3084 3261 2657 
Q 3669 2231 3669 1497 
Q 3669 778 3244 343 
Q 2819 -91 2113 -91 
Q 1303 -91 875 529 
Q 447 1150 447 2328 
Q 447 3434 972 4092 
Q 1497 4750 2381 4750 
Q 2619 4750 2861 4703 
Q 3103 4656 3366 4563 
z
" transform="scale(0.015625)"/>
      <path id="DejaVuSans-66" d="M 2375 4863 
L 2375 4384 
L 1825 4384 
Q 1516 4384 1395 4259 
Q 1275 4134 1275 3809 
L 1275 3500 
L 2222 3500 
L 2222 3053 
L 1275 3053 
L 1275 0 
L 697 0 
L 697 3053 
L 147 3053 
L 147 3500 
L 697 3500 
L 697 3744 
Q 697 4328 969 4595 
Q 1241 4863 1831 4863 
L 2375 4863 
z
" transform="scale(0.015625)"/>
      <path id="DejaVuSans-73" d="M 2834 3397 
L 2834 2853 
Q 2591 2978 2328 3040 
Q 2066 3103 1784 3103 
Q 1356 3103 1142 2972 
Q 928 2841 928 2578 
Q 928 2378 1081 2264 
Q 1234 2150 1697 2047 
L 1894 2003 
Q 2506 1872 2764 1633 
Q 3022 1394 3022 966 
Q 3022 478 2636 193 
Q 2250 -91 1575 -91 
Q 1294 -91 989 -36 
Q 684 19 347 128 
L 347 722 
Q 666 556 975 473 
Q 1284 391 1588 391 
Q 1994 391 2212 530 
Q 2431 669 2431 922 
Q 2431 1156 2273 1281 
Q 2116 1406 1581 1522 
L 1381 1569 
Q 847 1681 609 1914 
Q 372 2147 372 2553 
Q 372 3047 722 3315 
Q 1072 3584 1716 3584 
Q 2034 3584 2315 3537 
Q 2597 3491 2834 3397 
z
" transform="scale(0.015625)"/>
     </defs>
     <use xlink:href="#DejaVuSans-72"/>
     <use xlink:href="#DejaVuSans-61" transform="translate(41.113281 0)"/>
     <use xlink:href="#DejaVuSans-74" transform="translate(102.392578 0)"/>
     <use xlink:href="#DejaVuSans-69" transform="translate(141.601562 0)"/>
     <use xlink:href="#DejaVuSans-6f" transform="translate(169.384766 0)"/>
     <use xlink:href="#DejaVuSans-20" transform="translate(230.566406 0)"/>
     <use xlink:href="#DejaVuSans-3c" transform="translate(262.353516 0)"/>
     <use xlink:href="#DejaVuSans-20" transform="translate(346.142578 0)"/>
     <use xlink:href="#DejaVuSans-31" transform="translate(377.929688 0)"/>
     <use xlink:href="#DejaVuSans-3a" transform="translate(441.552734 0)"/>
     <use xlink:href="#DejaVuSans-20" transform="translate(475.244141 0)"/>
     <use xlink:href="#DejaVuSans-62" transform="translate(507.03125 0)"/>
     <use xlink:href="#DejaVuSans-6c" transform="translate(570.507812 0)"/>
     <use xlink:href="#DejaVuSans-6f" transform="translate(598.291016 0)"/>
     <use xlink:href="#DejaVuSans-63" transform="translate(659.472656 0)"/>
     <use xlink:href="#DejaVuSans-6b" transform="translate(714.453125 0)"/>
     <use xlink:href="#DejaVuSans-20" transform="translate(772.363281 0)"/>
     <use xlink:href="#DejaVuSans-32" transform="translate(804.150391 0)"/>
     <use xlink:href="#DejaVuSans-35" transform="translate(867.773438 0)"/>
     <use xlink:href="#DejaVuSans-36" transform="translate(931.396484 0)"/>
     <use xlink:href="#DejaVuSans-20" transform="translate(995.019531 0)"/>
     <use xlink:href="#DejaVuSans-66" transform="translate(1026.806641 0)"/>
     <use xlink:href="#DejaVuSans-61" transform="translate(1062.011719 0)"/>
     <use xlink:href="#DejaVuSans-73" transform="translate(1123.291016 0)"/>
     <use xlink:href="#DejaVuSans-74" transform="translate(1175.390625 0)"/>
     <use xlink:href="#DejaVuSans-65" transform="translate(1214.599609 0)"/>
     <use xlink:href="#DejaVuSans-72" transform="translate(1276.123047 0)"/>
    </g>
    <!-- ratio &gt; 1: block 128 faster -->
    <g transform="translate(59.101613 90.623906) scale(0.08 -0.08)">
     <defs>
      <path id="DejaVuSans-3e" d="M 678 3150 
L 678 3719 
L 4684 2266 
L 4684 1747 
L 678 294 
L 678 863 
L 3897 2003 
L 678 3150 
z
" transform="scale(0.015625)"/>
      <path id="DejaVuSans-38" d="M 2034 2216 
Q 1584 2216 1326 1975 
Q 1069 1734 1069 1313 
Q 1069 891 1326 650 
Q 1584 409 2034 409 
Q 2484 409 2743 651 
Q 3003 894 3003 1313 
Q 3003 1734 2745 1975 
Q 2488 2216 2034 2216 
z
M 1403 2484 
Q 997 2584 770 2862 
Q 544 3141 544 3541 
Q 544 4100 942 4425 
Q 1341 4750 2034 4750 
Q 2731 4750 3128 4425 
Q 3525 4100 3525 3541 
Q 3525 3141 3298 2862 
Q 3072 2584 2669 2484 
Q 3125 2378 3379 2068 
Q 3634 1759 3634 1313 
Q 3634 634 3220 271 
Q 2806 -91 2034 -91 
Q 1263 -91 848 271 
Q 434 634 434 1313 
Q 434 1759 690 2068 
Q 947 2378 1403 2484 
z
M 1172 3481 
Q 1172 3119 1398 2916 
Q 1625 2713 2034 2713 
Q 2441 2713 2670 2916 
Q 2900 3119 2900 3481 
Q 2900 3844 2670 4047 
Q 2441 4250 2034 4250 
Q 1625 4250 1398 4047 
Q 1172 3844 1172 3481 
z
" transform="scale(0.015625)"/>
     </defs>
     <use xlink:href="#DejaVuSans-72"/>
     <use xlink:href="#DejaVuSans-61" transform="translate(41.113281 0)"/>
     <use xlink:href="#DejaVuSans-74" transform="translate(102.392578 0)"/>
     <use xlink:href="#DejaVuSans-69" transform="translate(141.601562 0)"/>
     <use xlink:href="#DejaVuSans-6f" transform="translate(169.384766 0)"/>
     <use xlink:href="#DejaVuSans-20" transform="translate(230.566406 0)"/>
     <use xlink:href="#DejaVuSans-3e" transform="translate(262.353516 0)"/>
     <use xlink:href="#DejaVuSans-20" transform="translate(346.142578 0)"/>
     <use xlink:href="#DejaVuSans-31" transform="translate(377.929688 0)"/>
     <use xlink:href="#DejaVuSans-3a" transform="translate(441.552734 0)"/>
     <use xlink:href="#DejaVuSans-20" transform="translate(475.244141 0)"/>
     <use xlink:href="#DejaVuSans-62" transform="translate(507.03125 0)"/>
     <use xlink:href="#DejaVuSans-6c" transform="translate(570.507812 0)"/>
     <use xlink:href="#DejaVuSans-6f" transform="translate(598.291016 0)"/>
     <use xlink:href="#DejaVuSans-63" transform="translate(659.472656 0)"/>
     <use xlink:href="#DejaVuSans-6b" transform="translate(714.453125 0)"/>
     <use xlink:href="#DejaVuSans-20" transform="translate(772.363281 0)"/>
     <use xlink:href="#DejaVuSans-31" transform="translate(804.150391 0)"/>
     <use xlink:href="#DejaVuSans-32" transform="translate(867.773438 0)"/>
     <use xlink:href="#DejaVuSans-38" transform="translate(931.396484 0)"/>
     <use xlink:href="#DejaVuSans-20" transform="translate(995.019531 0)"/>
     <use xlink:href="#DejaVuSans-66" transform="translate(1026.806641 0)"/>
     <use xlink:href="#DejaVuSans-61" transform="translate(1062.011719 0)"/>
     <use xlink:href="#DejaVuSans-73" transform="translate(1123.291016 0)"/>
     <use xlink:href="#DejaVuSans-74" transform="translate(1175.390625 0)"/>
     <use xlink:href="#DejaVuSans-65" transform="translate(1214.599609 0)"/>
     <use xlink:href="#DejaVuSans-72" transform="translate(1276.123047 0)"/>
    </g>
   </g>
   <g id="text_13">
    <!-- block 256 / block 128 (n=30) -->
    <g transform="translate(201.317969 63.36) scale(0.1 -0.1)">
     <defs>
      <path id="DejaVuSans-Bold-62" d="M 2400 722 
Q 2759 722 2948 984 
Q 3138 1247 3138 1747 
Q 3138 2247 2948 2509 
Q 2759 2772 2400 2772 
Q 2041 2772 1848 2508 
Q 1656 2244 1656 1747 
Q 1656 1250 1848 986 
Q 2041 722 2400 722 
z
M 1656 2988 
Q 1888 3294 2169 3439 
Q 2450 3584 2816 3584 
Q 3463 3584 3878 3070 
Q 4294 2556 4294 1747 
Q 4294 938 3878 423 
Q 3463 -91 2816 -91 
Q 2450 -91 2169 54 
Q 1888 200 1656 506 
L 1656 0 
L 538 0 
L 538 4863 
L 1656 4863 
L 1656 2988 
z
" transform="scale(0.015625)"/>
      <path id="DejaVuSans-Bold-6c" d="M 538 4863 
L 1656 4863 
L 1656 0 
L 538 0 
L 538 4863 
z
" transform="scale(0.015625)"/>
      <path id="DejaVuSans-Bold-6f" d="M 2203 2784 
Q 1831 2784 1636 2517 
Q 1441 2250 1441 1747 
Q 1441 1244 1636 976 
Q 1831 709 2203 709 
Q 2569 709 2762 976 
Q 2956 1244 2956 1747 
Q 2956 2250 2762 2517 
Q 2569 2784 2203 2784 
z
M 2203 3584 
Q 3106 3584 3614 3096 
Q 4122 2609 4122 1747 
Q 4122 884 3614 396 
Q 3106 -91 2203 -91 
Q 1297 -91 786 396 
Q 275 884 275 1747 
Q 275 2609 786 3096 
Q 1297 3584 2203 3584 
z
" transform="scale(0.015625)"/>
      <path id="DejaVuSans-Bold-63" d="M 3366 3391 
L 3366 2478 
Q 3138 2634 2908 2709 
Q 2678 2784 2431 2784 
Q 1963 2784 1702 2511 
Q 1441 2238 1441 1747 
Q 1441 1256 1702 982 
Q 1963 709 2431 709 
Q 2694 709 2930 787 
Q 3166 866 3366 1019 
L 3366 103 
Q 3103 6 2833 -42 
Q 2563 -91 2291 -91 
Q 1344 -91 809 395 
Q 275 881 275 1747 
Q 275 2613 809 3098 
Q 1344 3584 2291 3584 
Q 2566 3584 2833 3536 
Q 3100 3488 3366 3391 
z
" transform="scale(0.015625)"/>
      <path id="DejaVuSans-Bold-6b" d="M 538 4863 
L 1656 4863 
L 1656 2216 
L 2944 3500 
L 4244 3500 
L 2534 1894 
L 4378 0 
L 3022 0 
L 1656 1459 
L 1656 0 
L 538 0 
L 538 4863 
z
" transform="scale(0.015625)"/>
      <path id="DejaVuSans-Bold-20" transform="scale(0.015625)"/>
      <path id="DejaVuSans-Bold-32" d="M 1844 884 
L 3897 884 
L 3897 0 
L 506 0 
L 506 884 
L 2209 2388 
Q 2438 2594 2547 2791 
Q 2656 2988 2656 3200 
Q 2656 3528 2436 3728 
Q 2216 3928 1850 3928 
Q 1569 3928 1234 3808 
Q 900 3688 519 3450 
L 519 4475 
Q 925 4609 1322 4679 
Q 1719 4750 2100 4750 
Q 2938 4750 3402 4381 
Q 3866 4013 3866 3353 
Q 3866 2972 3669 2642 
Q 3472 2313 2841 1759 
L 1844 884 
z
" transform="scale(0.015625)"/>
      <path id="DejaVuSans-Bold-35" d="M 678 4666 
L 3669 4666 
L 3669 3781 
L 1638 3781 
L 1638 3059 
Q 1775 3097 1914 3117 
Q 2053 3138 2203 3138 
Q 3056 3138 3531 2711 
Q 4006 2284 4006 1522 
Q 4006 766 3489 337 
Q 2972 -91 2053 -91 
Q 1656 -91 1267 -14 
Q 878 63 494 219 
L 494 1166 
Q 875 947 1217 837 
Q 1559 728 1863 728 
Q 2300 728 2551 942 
Q 2803 1156 2803 1522 
Q 2803 1891 2551 2103 
Q 2300 2316 1863 2316 
Q 1603 2316 1309 2248 
Q 1016 2181 678 2041 
L 678 4666 
z
" transform="scale(0.015625)"/>
      <path id="DejaVuSans-Bold-36" d="M 2316 2303 
Q 2000 2303 1842 2098 
Q 1684 1894 1684 1484 
Q 1684 1075 1842 870 
Q 2000 666 2316 666 
Q 2634 666 2792 870 
Q 2950 1075 2950 1484 
Q 2950 1894 2792 2098 
Q 2634 2303 2316 2303 
z
M 3803 4544 
L 3803 3681 
Q 3506 3822 3243 3889 
Q 2981 3956 2731 3956 
Q 2194 3956 1894 3657 
Q 1594 3359 1544 2772 
Q 1750 2925 1990 3001 
Q 2231 3078 2516 3078 
Q 3231 3078 3670 2659 
Q 4109 2241 4109 1563 
Q 4109 813 3618 361 
Q 3128 -91 2303 -91 
Q 1394 -91 895 523 
Q 397 1138 397 2266 
Q 397 3422 980 4083 
Q 1563 4744 2578 4744 
Q 2900 4744 3203 4694 
Q 3506 4644 3803 4544 
z
" transform="scale(0.015625)"/>
      <path id="DejaVuSans-Bold-2f" d="M 1644 4666 
L 2338 4666 
L 691 -594 
L 0 -594 
L 1644 4666 
z
" transform="scale(0.015625)"/>
      <path id="DejaVuSans-Bold-31" d="M 750 831 
L 1813 831 
L 1813 3847 
L 722 3622 
L 722 4441 
L 1806 4666 
L 2950 4666 
L 2950 831 
L 4013 831 
L 4013 0 
L 750 0 
L 750 831 
z
" transform="scale(0.015625)"/>
      <path id="DejaVuSans-Bold-38" d="M 2228 2088 
Q 1891 2088 1709 1903 
Q 1528 1719 1528 1375 
Q 1528 1031 1709 848 
Q 1891 666 2228 666 
Q 2563 666 2741 848 
Q 2919 1031 2919 1375 
Q 2919 1722 2741 1905 
Q 2563 2088 2228 2088 
z
M 1350 2484 
Q 925 2613 709 2878 
Q 494 3144 494 3541 
Q 494 4131 934 4440 
Q 1375 4750 2228 4750 
Q 3075 4750 3515 4442 
Q 3956 4134 3956 3541 
Q 3956 3144 3739 2878 
Q 3522 2613 3097 2484 
Q 3572 2353 3814 2058 
Q 4056 1763 4056 1313 
Q 4056 619 3595 264 
Q 3134 -91 2228 -91 
Q 1319 -91 855 264 
Q 391 619 391 1313 
Q 391 1763 633 2058 
Q 875 2353 1350 2484 
z
M 1631 3419 
Q 1631 3141 1786 2991 
Q 1941 2841 2228 2841 
Q 2509 2841 2662 2991 
Q 2816 3141 2816 3419 
Q 2816 3697 2662 3845 
Q 2509 3994 2228 3994 
Q 1941 3994 1786 3844 
Q 1631 3694 1631 3419 
z
" transform="scale(0.015625)"/>
      <path id="DejaVuSans-Bold-28" d="M 2413 -844 
L 1484 -844 
Q 1006 -72 778 623 
Q 550 1319 550 2003 
Q 550 2688 779 3389 
Q 1009 4091 1484 4856 
L 2413 4856 
Q 2013 4116 1813 3408 
Q 1613 2700 1613 2009 
Q 1613 1319 1811 609 
Q 2009 -100 2413 -844 
z
" transform="scale(0.015625)"/>
      <path id="DejaVuSans-Bold-6e" d="M 4056 2131 
L 4056 0 
L 2931 0 
L 2931 347 
L 2931 1631 
Q 2931 2084 2911 2256 
Q 2891 2428 2841 2509 
Q 2775 2619 2662 2680 
Q 2550 2741 2406 2741 
Q 2056 2741 1856 2470 
Q 1656 2200 1656 1722 
L 1656 0 
L 538 0 
L 538 3500 
L 1656 3500 
L 1656 2988 
Q 1909 3294 2193 3439 
Q 2478 3584 2822 3584 
Q 3428 3584 3742 3212 
Q 4056 2841 4056 2131 
z
" transform="scale(0.015625)"/>
      <path id="DejaVuSans-Bold-3d" d="M 678 3084 
L 4684 3084 
L 4684 2350 
L 678 2350 
L 678 3084 
z
M 678 1663 
L 4684 1663 
L 4684 922 
L 678 922 
L 678 1663 
z
" transform="scale(0.015625)"/>
      <path id="DejaVuSans-Bold-33" d="M 2981 2516 
Q 3453 2394 3698 2092 
Q 3944 1791 3944 1325 
Q 3944 631 3412 270 
Q 2881 -91 1863 -91 
Q 1503 -91 1142 -33 
Q 781 25 428 141 
L 428 1069 
Q 766 900 1098 814 
Q 1431 728 1753 728 
Q 2231 728 2486 893 
Q 2741 1059 2741 1369 
Q 2741 1688 2480 1852 
Q 2219 2016 1709 2016 
L 1228 2016 
L 1228 2791 
L 1734 2791 
Q 2188 2791 2409 2933 
Q 2631 3075 2631 3366 
Q 2631 3634 2415 3781 
Q 2200 3928 1806 3928 
Q 1516 3928 1219 3862 
Q 922 3797 628 3669 
L 628 4550 
Q 984 4650 1334 4700 
Q 1684 4750 2022 4750 
Q 2931 4750 3382 4451 
Q 3834 4153 3834 3553 
Q 3834 3144 3618 2883 
Q 3403 2622 2981 2516 
z
" transform="scale(0.015625)"/>
      <path id="DejaVuSans-Bold-30" d="M 2944 2338 
Q 2944 3213 2780 3570 
Q 2616 3928 2228 3928 
Q 1841 3928 1675 3570 
Q 1509 3213 1509 2338 
Q 1509 1453 1675 1090 
Q 1841 728 2228 728 
Q 2613 728 2778 1090 
Q 2944 1453 2944 2338 
z
M 4147 2328 
Q 4147 1169 3647 539 
Q 3147 -91 2228 -91 
Q 1306 -91 806 539 
Q 306 1169 306 2328 
Q 306 3491 806 4120 
Q 1306 4750 2228 4750 
Q 3147 4750 3647 4120 
Q 4147 3491 4147 2328 
z
" transform="scale(0.015625)"/>
      <path id="DejaVuSans-Bold-29" d="M 513 -844 
Q 913 -100 1113 609 
Q 1313 1319 1313 2009 
Q 1313 2700 1113 3408 
Q 913 4116 513 4856 
L 1441 4856 
Q 1916 4091 2145 3389 
Q 2375 2688 2375 2003 
Q 2375 1319 2147 623 
Q 1919 -72 1441 -844 
L 513 -844 
z
" transform="scale(0.015625)"/>
     </defs>
     <use xlink:href="#DejaVuSans-Bold-62"/>
     <use xlink:href="#DejaVuSans-Bold-6c" transform="translate(71.582031 0)"/>
     <use xlink:href="#DejaVuSans-Bold-6f" transform="translate(105.859375 0)"/>
     <use xlink:href="#DejaVuSans-Bold-63" transform="translate(174.560547 0)"/>
     <use xlink:href="#DejaVuSans-Bold-6b" transform="translate(233.837891 0)"/>
     <use xlink:href="#DejaVuSans-Bold-20" transform="translate(300.341797 0)"/>
     <use xlink:href="#DejaVuSans-Bold-32" transform="translate(335.15625 0)"/>
     <use xlink:href="#DejaVuSans-Bold-35" transform="translate(404.736328 0)"/>
     <use xlink:href="#DejaVuSans-Bold-36" transform="translate(474.316406 0)"/>
     <use xlink:href="#DejaVuSans-Bold-20" transform="translate(543.896484 0)"/>
     <use xlink:href="#DejaVuSans-Bold-2f" transform="translate(578.710938 0)"/>
     <use xlink:href="#DejaVuSans-Bold-20" transform="translate(615.234375 0)"/>
     <use xlink:href="#DejaVuSans-Bold-62" transform="translate(650.048828 0)"/>
     <use xlink:href="#DejaVuSans-Bold-6c" transform="translate(721.630859 0)"/>
     <use xlink:href="#DejaVuSans-Bold-6f" transform="translate(755.908203 0)"/>
     <use xlink:href="#DejaVuSans-Bold-63" transform="translate(824.609375 0)"/>
     <use xlink:href="#DejaVuSans-Bold-6b" transform="translate(883.886719 0)"/>
     <use xlink:href="#DejaVuSans-Bold-20" transform="translate(950.390625 0)"/>
     <use xlink:href="#DejaVuSans-Bold-31" transform="translate(985.205078 0)"/>
     <use xlink:href="#DejaVuSans-Bold-32" transform="translate(1054.785156 0)"/>
     <use xlink:href="#DejaVuSans-Bold-38" transform="translate(1124.365234 0)"/>
     <use xlink:href="#DejaVuSans-Bold-20" transform="translate(1193.945312 0)"/>
     <use xlink:href="#DejaVuSans-Bold-28" transform="translate(1228.759766 0)"/>
     <use xlink:href="#DejaVuSans-Bold-6e" transform="translate(1274.462891 0)"/>
     <use xlink:href="#DejaVuSans-Bold-3d" transform="translate(1345.654297 0)"/>
     <use xlink:href="#DejaVuSans-Bold-33" transform="translate(1429.443359 0)"/>
     <use xlink:href="#DejaVuSans-Bold-30" transform="translate(1499.023438 0)"/>
     <use xlink:href="#DejaVuSans-Bold-29" transform="translate(1568.603516 0)"/>
    </g>
   </g>
  </g>
  <g id="axes_2">
   <g id="patch_8">
    <path d="M 528.552812 380.705302 
L 992.992812 380.705302 
L 992.992812 69.36 
L 528.552812 69.36 
z
" style="fill: #fbfbfc"/>
   </g>
   <g id="PathCollection_4">
    <g clip-path="url(#p3961afdc88)">
     <use xlink:href="#m237d859428" x="592.702955" y="268.188601" style="fill: #4c78a8; fill-opacity: 0.68; stroke: #4c78a8; stroke-opacity: 0.68"/>
     <use xlink:href="#m237d859428" x="599.434254" y="244.397952" style="fill: #4c78a8; fill-opacity: 0.68; stroke: #4c78a8; stroke-opacity: 0.68"/>
     <use xlink:href="#m237d859428" x="584.805416" y="251.064345" style="fill: #4c78a8; fill-opacity: 0.68; stroke: #4c78a8; stroke-opacity: 0.68"/>
     <use xlink:href="#m237d859428" x="586.624582" y="222.852968" style="fill: #4c78a8; fill-opacity: 0.68; stroke: #4c78a8; stroke-opacity: 0.68"/>
    </g>
   </g>
   <g id="PathCollection_5">
    <g clip-path="url(#p3961afdc88)">
     <use xlink:href="#m24e4ff0819" x="763.375943" y="242.56846" style="fill: #f58518; fill-opacity: 0.68; stroke: #f58518; stroke-opacity: 0.68"/>
     <use xlink:href="#m24e4ff0819" x="766.777316" y="254.4438" style="fill: #f58518; fill-opacity: 0.68; stroke: #f58518; stroke-opacity: 0.68"/>
     <use xlink:href="#m24e4ff0819" x="747.999095" y="219.889276" style="fill: #f58518; fill-opacity: 0.68; stroke: #f58518; stroke-opacity: 0.68"/>
     <use xlink:href="#m24e4ff0819" x="755.629626" y="229.1199" style="fill: #f58518; fill-opacity: 0.68; stroke: #f58518; stroke-opacity: 0.68"/>
    </g>
   </g>
   <g id="PathCollection_6">
    <g clip-path="url(#p3961afdc88)">
     <use xlink:href="#m6b31d72b91" x="930.206532" y="231.897402" style="fill: #54a24b; fill-opacity: 0.68; stroke: #54a24b; stroke-opacity: 0.68"/>
     <use xlink:href="#m6b31d72b91" x="944.637849" y="234.95162" style="fill: #54a24b; fill-opacity: 0.68; stroke: #54a24b; stroke-opacity: 0.68"/>
     <use xlink:href="#m6b31d72b91" x="931.513345" y="238.596721" style="fill: #54a24b; fill-opacity: 0.68; stroke: #54a24b; stroke-opacity: 0.68"/>
     <use xlink:href="#m6b31d72b91" x="933.491249" y="223.969992" style="fill: #54a24b; fill-opacity: 0.68; stroke: #54a24b; stroke-opacity: 0.68"/>
    </g>
   </g>
   <g id="matplotlib.axis_3">
    <g id="xtick_4">
     <g id="line2d_20">
      <path d="M 587.732574 380.705302 
L 587.732574 69.36 
" clip-path="url(#p3961afdc88)" style="fill: none; stroke: #dfe3e8; stroke-opacity: 0.65; stroke-width: 0.7; stroke-linecap: square"/>
     </g>
     <g id="line2d_21">
      <g>
       <use xlink:href="#mc03f5dbfbb" x="587.732574" y="380.705302" style="stroke: #000000; stroke-width: 0.8"/>
      </g>
     </g>
     <g id="text_14">
      <!-- A100-40GB -->
      <g transform="translate(566.330916 405.35222) rotate(-15) scale(0.08 -0.08)">
       <use xlink:href="#DejaVuSans-41"/>
       <use xlink:href="#DejaVuSans-31" transform="translate(68.408203 0)"/>
       <use xlink:href="#DejaVuSans-30" transform="translate(132.03125 0)"/>
       <use xlink:href="#DejaVuSans-30" transform="translate(195.654297 0)"/>
       <use xlink:href="#DejaVuSans-2d" transform="translate(259.277344 0)"/>
       <use xlink:href="#DejaVuSans-34" transform="translate(295.361328 0)"/>
       <use xlink:href="#DejaVuSans-30" transform="translate(358.984375 0)"/>
       <use xlink:href="#DejaVuSans-47" transform="translate(422.607422 0)"/>
       <use xlink:href="#DejaVuSans-42" transform="translate(500.097656 0)"/>
      </g>
     </g>
    </g>
    <g id="xtick_5">
     <g id="line2d_22">
      <path d="M 760.772812 380.705302 
L 760.772812 69.36 
" clip-path="url(#p3961afdc88)" style="fill: none; stroke: #dfe3e8; stroke-opacity: 0.65; stroke-width: 0.7; stroke-linecap: square"/>
     </g>
     <g id="line2d_23">
      <g>
       <use xlink:href="#mc03f5dbfbb" x="760.772812" y="380.705302" style="stroke: #000000; stroke-width: 0.8"/>
      </g>
     </g>
     <g id="text_15">
      <!-- H100 -->
      <g transform="translate(751.063686 399.086211) rotate(-15) scale(0.08 -0.08)">
       <use xlink:href="#DejaVuSans-48"/>
       <use xlink:href="#DejaVuSans-31" transform="translate(75.195312 0)"/>
       <use xlink:href="#DejaVuSans-30" transform="translate(138.818359 0)"/>
       <use xlink:href="#DejaVuSans-30" transform="translate(202.441406 0)"/>
      </g>
     </g>
    </g>
    <g id="xtick_6">
     <g id="line2d_24">
      <path d="M 933.813051 380.705302 
L 933.813051 69.36 
" clip-path="url(#p3961afdc88)" style="fill: none; stroke: #dfe3e8; stroke-opacity: 0.65; stroke-width: 0.7; stroke-linecap: square"/>
     </g>
     <g id="line2d_25">
      <g>
       <use xlink:href="#mc03f5dbfbb" x="933.813051" y="380.705302" style="stroke: #000000; stroke-width: 0.8"/>
      </g>
     </g>
     <g id="text_16">
      <!-- B200 -->
      <g transform="translate(924.358688 398.949684) rotate(-15) scale(0.08 -0.08)">
       <use xlink:href="#DejaVuSans-42"/>
       <use xlink:href="#DejaVuSans-32" transform="translate(68.603516 0)"/>
       <use xlink:href="#DejaVuSans-30" transform="translate(132.226562 0)"/>
       <use xlink:href="#DejaVuSans-30" transform="translate(195.849609 0)"/>
      </g>
     </g>
    </g>
    <g id="text_17">
     <!-- GPU -->
     <g transform="translate(751.279219 417.797873) scale(0.09 -0.09)">
      <use xlink:href="#DejaVuSans-47"/>
      <use xlink:href="#DejaVuSans-50" transform="translate(77.490234 0)"/>
      <use xlink:href="#DejaVuSans-55" transform="translate(137.792969 0)"/>
     </g>
    </g>
   </g>
   <g id="matplotlib.axis_4">
    <g id="ytick_7">
     <g id="line2d_26">
      <path d="M 528.552812 380.705302 
L 992.992812 380.705302 
" clip-path="url(#p3961afdc88)" style="fill: none; stroke: #dfe3e8; stroke-opacity: 0.65; stroke-width: 0.7; stroke-linecap: square"/>
     </g>
     <g id="line2d_27">
      <g>
       <use xlink:href="#m3317632c56" x="528.552812" y="380.705302" style="stroke: #000000; stroke-width: 0.8"/>
      </g>
     </g>
    </g>
    <g id="ytick_8">
     <g id="line2d_28">
      <path d="M 528.552812 318.436242 
L 992.992812 318.436242 
" clip-path="url(#p3961afdc88)" style="fill: none; stroke: #dfe3e8; stroke-opacity: 0.65; stroke-width: 0.7; stroke-linecap: square"/>
     </g>
     <g id="line2d_29">
      <g>
       <use xlink:href="#m3317632c56" x="528.552812" y="318.436242" style="stroke: #000000; stroke-width: 0.8"/>
      </g>
     </g>
    </g>
    <g id="ytick_9">
     <g id="line2d_30">
      <path d="M 528.552812 256.167181 
L 992.992812 256.167181 
" clip-path="url(#p3961afdc88)" style="fill: none; stroke: #dfe3e8; stroke-opacity: 0.65; stroke-width: 0.7; stroke-linecap: square"/>
     </g>
     <g id="line2d_31">
      <g>
       <use xlink:href="#m3317632c56" x="528.552812" y="256.167181" style="stroke: #000000; stroke-width: 0.8"/>
      </g>
     </g>
    </g>
    <g id="ytick_10">
     <g id="line2d_32">
      <path d="M 528.552812 193.898121 
L 992.992812 193.898121 
" clip-path="url(#p3961afdc88)" style="fill: none; stroke: #dfe3e8; stroke-opacity: 0.65; stroke-width: 0.7; stroke-linecap: square"/>
     </g>
     <g id="line2d_33">
      <g>
       <use xlink:href="#m3317632c56" x="528.552812" y="193.898121" style="stroke: #000000; stroke-width: 0.8"/>
      </g>
     </g>
    </g>
    <g id="ytick_11">
     <g id="line2d_34">
      <path d="M 528.552812 131.62906 
L 992.992812 131.62906 
" clip-path="url(#p3961afdc88)" style="fill: none; stroke: #dfe3e8; stroke-opacity: 0.65; stroke-width: 0.7; stroke-linecap: square"/>
     </g>
     <g id="line2d_35">
      <g>
       <use xlink:href="#m3317632c56" x="528.552812" y="131.62906" style="stroke: #000000; stroke-width: 0.8"/>
      </g>
     </g>
    </g>
    <g id="ytick_12">
     <g id="line2d_36">
      <path d="M 528.552812 69.36 
L 992.992812 69.36 
" clip-path="url(#p3961afdc88)" style="fill: none; stroke: #dfe3e8; stroke-opacity: 0.65; stroke-width: 0.7; stroke-linecap: square"/>
     </g>
     <g id="line2d_37">
      <g>
       <use xlink:href="#m3317632c56" x="528.552812" y="69.36" style="stroke: #000000; stroke-width: 0.8"/>
      </g>
     </g>
    </g>
   </g>
   <g id="LineCollection_4">
    <path d="M 549.663722 247.669326 
L 625.801427 247.669326 
" clip-path="url(#p3961afdc88)" style="fill: none; stroke: #111827; stroke-width: 2"/>
   </g>
   <g id="LineCollection_5">
    <path d="M 722.70396 235.592754 
L 798.841665 235.592754 
" clip-path="url(#p3961afdc88)" style="fill: none; stroke: #111827; stroke-width: 2"/>
   </g>
   <g id="LineCollection_6">
    <path d="M 895.744198 233.411532 
L 971.881903 233.411532 
" clip-path="url(#p3961afdc88)" style="fill: none; stroke: #111827; stroke-width: 2"/>
   </g>
   <g id="line2d_38">
    <path d="M 528.552812 193.898121 
L 992.992812 193.898121 
" clip-path="url(#p3961afdc88)" style="fill: none; stroke-dasharray: 3.7,1.6; stroke-dashoffset: 0; stroke: #111827"/>
   </g>
   <g id="patch_9">
    <path d="M 528.552812 380.705302 
L 528.552812 69.36 
" style="fill: none; stroke: #b8bdc7; stroke-width: 0.8; stroke-linejoin: miter; stroke-linecap: square"/>
   </g>
   <g id="patch_10">
    <path d="M 992.992812 380.705302 
L 992.992812 69.36 
" style="fill: none; stroke: #b8bdc7; stroke-width: 0.8; stroke-linejoin: miter; stroke-linecap: square"/>
   </g>
   <g id="patch_11">
    <path d="M 528.552812 380.705302 
L 992.992812 380.705302 
" style="fill: none; stroke: #b8bdc7; stroke-width: 0.8; stroke-linejoin: miter; stroke-linecap: square"/>
   </g>
   <g id="patch_12">
    <path d="M 528.552812 69.36 
L 992.992812 69.36 
" style="fill: none; stroke: #b8bdc7; stroke-width: 0.8; stroke-linejoin: miter; stroke-linecap: square"/>
   </g>
   <g id="text_18">
    <g id="patch_13">
     <path d="M 537.841612 94.687656 
L 643.219112 94.687656 
Q 645.619113 94.687656 645.619113 92.287656 
L 645.619113 75.586906 
Q 645.619113 73.186906 643.219112 73.186906 
L 537.841612 73.186906 
Q 535.441613 73.186906 535.441613 75.586906 
L 535.441613 92.287656 
Q 535.441613 94.687656 537.841612 94.687656 
z
" style="fill: #ffffff; stroke: #d1d5db; stroke-linejoin: miter"/>
    </g>
    <!-- ratio &lt; 1: block 64 faster -->
    <g transform="translate(537.841612 81.665656) scale(0.08 -0.08)">
     <use xlink:href="#DejaVuSans-72"/>
     <use xlink:href="#DejaVuSans-61" transform="translate(41.113281 0)"/>
     <use xlink:href="#DejaVuSans-74" transform="translate(102.392578 0)"/>
     <use xlink:href="#DejaVuSans-69" transform="translate(141.601562 0)"/>
     <use xlink:href="#DejaVuSans-6f" transform="translate(169.384766 0)"/>
     <use xlink:href="#DejaVuSans-20" transform="translate(230.566406 0)"/>
     <use xlink:href="#DejaVuSans-3c" transform="translate(262.353516 0)"/>
     <use xlink:href="#DejaVuSans-20" transform="translate(346.142578 0)"/>
     <use xlink:href="#DejaVuSans-31" transform="translate(377.929688 0)"/>
     <use xlink:href="#DejaVuSans-3a" transform="translate(441.552734 0)"/>
     <use xlink:href="#DejaVuSans-20" transform="translate(475.244141 0)"/>
     <use xlink:href="#DejaVuSans-62" transform="translate(507.03125 0)"/>
     <use xlink:href="#DejaVuSans-6c" transform="translate(570.507812 0)"/>
     <use xlink:href="#DejaVuSans-6f" transform="translate(598.291016 0)"/>
     <use xlink:href="#DejaVuSans-63" transform="translate(659.472656 0)"/>
     <use xlink:href="#DejaVuSans-6b" transform="translate(714.453125 0)"/>
     <use xlink:href="#DejaVuSans-20" transform="translate(772.363281 0)"/>
     <use xlink:href="#DejaVuSans-36" transform="translate(804.150391 0)"/>
     <use xlink:href="#DejaVuSans-34" transform="translate(867.773438 0)"/>
     <use xlink:href="#DejaVuSans-20" transform="translate(931.396484 0)"/>
     <use xlink:href="#DejaVuSans-66" transform="translate(963.183594 0)"/>
     <use xlink:href="#DejaVuSans-61" transform="translate(998.388672 0)"/>
     <use xlink:href="#DejaVuSans-73" transform="translate(1059.667969 0)"/>
     <use xlink:href="#DejaVuSans-74" transform="translate(1111.767578 0)"/>
     <use xlink:href="#DejaVuSans-65" transform="translate(1150.976562 0)"/>
     <use xlink:href="#DejaVuSans-72" transform="translate(1212.5 0)"/>
    </g>
    <!-- ratio &gt; 1: block 256 faster -->
    <g transform="translate(537.841612 90.623906) scale(0.08 -0.08)">
     <use xlink:href="#DejaVuSans-72"/>
     <use xlink:href="#DejaVuSans-61" transform="translate(41.113281 0)"/>
     <use xlink:href="#DejaVuSans-74" transform="translate(102.392578 0)"/>
     <use xlink:href="#DejaVuSans-69" transform="translate(141.601562 0)"/>
     <use xlink:href="#DejaVuSans-6f" transform="translate(169.384766 0)"/>
     <use xlink:href="#DejaVuSans-20" transform="translate(230.566406 0)"/>
     <use xlink:href="#DejaVuSans-3e" transform="translate(262.353516 0)"/>
     <use xlink:href="#DejaVuSans-20" transform="translate(346.142578 0)"/>
     <use xlink:href="#DejaVuSans-31" transform="translate(377.929688 0)"/>
     <use xlink:href="#DejaVuSans-3a" transform="translate(441.552734 0)"/>
     <use xlink:href="#DejaVuSans-20" transform="translate(475.244141 0)"/>
     <use xlink:href="#DejaVuSans-62" transform="translate(507.03125 0)"/>
     <use xlink:href="#DejaVuSans-6c" transform="translate(570.507812 0)"/>
     <use xlink:href="#DejaVuSans-6f" transform="translate(598.291016 0)"/>
     <use xlink:href="#DejaVuSans-63" transform="translate(659.472656 0)"/>
     <use xlink:href="#DejaVuSans-6b" transform="translate(714.453125 0)"/>
     <use xlink:href="#DejaVuSans-20" transform="translate(772.363281 0)"/>
     <use xlink:href="#DejaVuSans-32" transform="translate(804.150391 0)"/>
     <use xlink:href="#DejaVuSans-35" transform="translate(867.773438 0)"/>
     <use xlink:href="#DejaVuSans-36" transform="translate(931.396484 0)"/>
     <use xlink:href="#DejaVuSans-20" transform="translate(995.019531 0)"/>
     <use xlink:href="#DejaVuSans-66" transform="translate(1026.806641 0)"/>
     <use xlink:href="#DejaVuSans-61" transform="translate(1062.011719 0)"/>
     <use xlink:href="#DejaVuSans-73" transform="translate(1123.291016 0)"/>
     <use xlink:href="#DejaVuSans-74" transform="translate(1175.390625 0)"/>
     <use xlink:href="#DejaVuSans-65" transform="translate(1214.599609 0)"/>
     <use xlink:href="#DejaVuSans-72" transform="translate(1276.123047 0)"/>
    </g>
   </g>
   <g id="text_19">
    <!-- block 64 / block 256 (n=12) -->
    <g transform="translate(683.536875 63.36) scale(0.1 -0.1)">
     <defs>
      <path id="DejaVuSans-Bold-34" d="M 2356 3675 
L 1038 1722 
L 2356 1722 
L 2356 3675 
z
M 2156 4666 
L 3494 4666 
L 3494 1722 
L 4159 1722 
L 4159 850 
L 3494 850 
L 3494 0 
L 2356 0 
L 2356 850 
L 288 850 
L 288 1881 
L 2156 4666 
z
" transform="scale(0.015625)"/>
     </defs>
     <use xlink:href="#DejaVuSans-Bold-62"/>
     <use xlink:href="#DejaVuSans-Bold-6c" transform="translate(71.582031 0)"/>
     <use xlink:href="#DejaVuSans-Bold-6f" transform="translate(105.859375 0)"/>
     <use xlink:href="#DejaVuSans-Bold-63" transform="translate(174.560547 0)"/>
     <use xlink:href="#DejaVuSans-Bold-6b" transform="translate(233.837891 0)"/>
     <use xlink:href="#DejaVuSans-Bold-20" transform="translate(300.341797 0)"/>
     <use xlink:href="#DejaVuSans-Bold-36" transform="translate(335.15625 0)"/>
     <use xlink:href="#DejaVuSans-Bold-34" transform="translate(404.736328 0)"/>
     <use xlink:href="#DejaVuSans-Bold-20" transform="translate(474.316406 0)"/>
     <use xlink:href="#DejaVuSans-Bold-2f" transform="translate(509.130859 0)"/>
     <use xlink:href="#DejaVuSans-Bold-20" transform="translate(545.654297 0)"/>
     <use xlink:href="#DejaVuSans-Bold-62" transform="translate(580.46875 0)"/>
     <use xlink:href="#DejaVuSans-Bold-6c" transform="translate(652.050781 0)"/>
     <use xlink:href="#DejaVuSans-Bold-6f" transform="translate(686.328125 0)"/>
     <use xlink:href="#DejaVuSans-Bold-63" transform="translate(755.029297 0)"/>
     <use xlink:href="#DejaVuSans-Bold-6b" transform="translate(814.306641 0)"/>
     <use xlink:href="#DejaVuSans-Bold-20" transform="translate(880.810547 0)"/>
     <use xlink:href="#DejaVuSans-Bold-32" transform="translate(915.625 0)"/>
     <use xlink:href="#DejaVuSans-Bold-35" transform="translate(985.205078 0)"/>
     <use xlink:href="#DejaVuSans-Bold-36" transform="translate(1054.785156 0)"/>
     <use xlink:href="#DejaVuSans-Bold-20" transform="translate(1124.365234 0)"/>
     <use xlink:href="#DejaVuSans-Bold-28" transform="translate(1159.179688 0)"/>
     <use xlink:href="#DejaVuSans-Bold-6e" transform="translate(1204.882812 0)"/>
     <use xlink:href="#DejaVuSans-Bold-3d" transform="translate(1276.074219 0)"/>
     <use xlink:href="#DejaVuSans-Bold-31" transform="translate(1359.863281 0)"/>
     <use xlink:href="#DejaVuSans-Bold-32" transform="translate(1429.443359 0)"/>
     <use xlink:href="#DejaVuSans-Bold-29" transform="translate(1499.023438 0)"/>
    </g>
   </g>
  </g>
  <g id="text_20">
   <!-- Exactly matched attention block-size response -->
   <g transform="translate(336.075937 17.837812) scale(0.14 -0.14)">
    <defs>
     <path id="DejaVuSans-45" d="M 628 4666 
L 3578 4666 
L 3578 4134 
L 1259 4134 
L 1259 2753 
L 3481 2753 
L 3481 2222 
L 1259 2222 
L 1259 531 
L 3634 531 
L 3634 0 
L 628 0 
L 628 4666 
z
" transform="scale(0.015625)"/>
     <path id="DejaVuSans-78" d="M 3513 3500 
L 2247 1797 
L 3578 0 
L 2900 0 
L 1881 1375 
L 863 0 
L 184 0 
L 1544 1831 
L 300 3500 
L 978 3500 
L 1906 2253 
L 2834 3500 
L 3513 3500 
z
" transform="scale(0.015625)"/>
     <path id="DejaVuSans-68" d="M 3513 2113 
L 3513 0 
L 2938 0 
L 2938 2094 
Q 2938 2591 2744 2837 
Q 2550 3084 2163 3084 
Q 1697 3084 1428 2787 
Q 1159 2491 1159 1978 
L 1159 0 
L 581 0 
L 581 4863 
L 1159 4863 
L 1159 2956 
Q 1366 3272 1645 3428 
Q 1925 3584 2291 3584 
Q 2894 3584 3203 3211 
Q 3513 2838 3513 2113 
z
" transform="scale(0.015625)"/>
     <path id="DejaVuSans-7a" d="M 353 3500 
L 3084 3500 
L 3084 2975 
L 922 459 
L 3084 459 
L 3084 0 
L 275 0 
L 275 525 
L 2438 3041 
L 353 3041 
L 353 3500 
z
" transform="scale(0.015625)"/>
     <path id="DejaVuSans-70" d="M 1159 525 
L 1159 -1331 
L 581 -1331 
L 581 3500 
L 1159 3500 
L 1159 2969 
Q 1341 3281 1617 3432 
Q 1894 3584 2278 3584 
Q 2916 3584 3314 3078 
Q 3713 2572 3713 1747 
Q 3713 922 3314 415 
Q 2916 -91 2278 -91 
Q 1894 -91 1617 61 
Q 1341 213 1159 525 
z
M 3116 1747 
Q 3116 2381 2855 2742 
Q 2594 3103 2138 3103 
Q 1681 3103 1420 2742 
Q 1159 2381 1159 1747 
Q 1159 1113 1420 752 
Q 1681 391 2138 391 
Q 2594 391 2855 752 
Q 3116 1113 3116 1747 
z
" transform="scale(0.015625)"/>
    </defs>
    <use xlink:href="#DejaVuSans-45"/>
    <use xlink:href="#DejaVuSans-78" transform="translate(63.183594 0)"/>
    <use xlink:href="#DejaVuSans-61" transform="translate(122.363281 0)"/>
    <use xlink:href="#DejaVuSans-63" transform="translate(183.642578 0)"/>
    <use xlink:href="#DejaVuSans-74" transform="translate(238.623047 0)"/>
    <use xlink:href="#DejaVuSans-6c" transform="translate(277.832031 0)"/>
    <use xlink:href="#DejaVuSans-79" transform="translate(305.615234 0)"/>
    <use xlink:href="#DejaVuSans-20" transform="translate(364.794922 0)"/>
    <use xlink:href="#DejaVuSans-6d" transform="translate(396.582031 0)"/>
    <use xlink:href="#DejaVuSans-61" transform="translate(493.994141 0)"/>
    <use xlink:href="#DejaVuSans-74" transform="translate(555.273438 0)"/>
    <use xlink:href="#DejaVuSans-63" transform="translate(594.482422 0)"/>
    <use xlink:href="#DejaVuSans-68" transform="translate(649.462891 0)"/>
    <use xlink:href="#DejaVuSans-65" transform="translate(712.841797 0)"/>
    <use xlink:href="#DejaVuSans-64" transform="translate(774.365234 0)"/>
    <use xlink:href="#DejaVuSans-20" transform="translate(837.841797 0)"/>
    <use xlink:href="#DejaVuSans-61" transform="translate(869.628906 0)"/>
    <use xlink:href="#DejaVuSans-74" transform="translate(930.908203 0)"/>
    <use xlink:href="#DejaVuSans-74" transform="translate(970.117188 0)"/>
    <use xlink:href="#DejaVuSans-65" transform="translate(1009.326172 0)"/>
    <use xlink:href="#DejaVuSans-6e" transform="translate(1070.849609 0)"/>
    <use xlink:href="#DejaVuSans-74" transform="translate(1134.228516 0)"/>
    <use xlink:href="#DejaVuSans-69" transform="translate(1173.4375 0)"/>
    <use xlink:href="#DejaVuSans-6f" transform="translate(1201.220703 0)"/>
    <use xlink:href="#DejaVuSans-6e" transform="translate(1262.402344 0)"/>
    <use xlink:href="#DejaVuSans-20" transform="translate(1325.78125 0)"/>
    <use xlink:href="#DejaVuSans-62" transform="translate(1357.568359 0)"/>
    <use xlink:href="#DejaVuSans-6c" transform="translate(1421.044922 0)"/>
    <use xlink:href="#DejaVuSans-6f" transform="translate(1448.828125 0)"/>
    <use xlink:href="#DejaVuSans-63" transform="translate(1510.009766 0)"/>
    <use xlink:href="#DejaVuSans-6b" transform="translate(1564.990234 0)"/>
    <use xlink:href="#DejaVuSans-2d" transform="translate(1622.900391 0)"/>
    <use xlink:href="#DejaVuSans-73" transform="translate(1658.984375 0)"/>
    <use xlink:href="#DejaVuSans-69" transform="translate(1711.083984 0)"/>
    <use xlink:href="#DejaVuSans-7a" transform="translate(1738.867188 0)"/>
    <use xlink:href="#DejaVuSans-65" transform="translate(1791.357422 0)"/>
    <use xlink:href="#DejaVuSans-20" transform="translate(1852.880859 0)"/>
    <use xlink:href="#DejaVuSans-72" transform="translate(1884.667969 0)"/>
    <use xlink:href="#DejaVuSans-65" transform="translate(1923.53125 0)"/>
    <use xlink:href="#DejaVuSans-73" transform="translate(1985.054688 0)"/>
    <use xlink:href="#DejaVuSans-70" transform="translate(2037.154297 0)"/>
    <use xlink:href="#DejaVuSans-6f" transform="translate(2100.630859 0)"/>
    <use xlink:href="#DejaVuSans-6e" transform="translate(2161.8125 0)"/>
    <use xlink:href="#DejaVuSans-73" transform="translate(2225.191406 0)"/>
    <use xlink:href="#DejaVuSans-65" transform="translate(2277.291016 0)"/>
   </g>
  </g>
 </g>
 <defs>
  <clipPath id="p80c046a129">
   <rect x="49.812813" y="69.36" width="464.44" height="311.345302"/>
  </clipPath>
  <clipPath id="p3961afdc88">
   <rect x="528.552812" y="69.36" width="464.44" height="311.345302"/>
  </clipPath>
 </defs>
</svg>
